/* XPM */
static char *billy[] = {
/* columns rows colors chars-per-pixel */
"28 40 9 1 ",
"  c None",
". c black",
"X c #593C59",
"o c #DFBE59",
"O c #8E8A8E",
"+ c #FFFF9E",
"@ c #DFDFBE",
"# c #FFFBF7",
"$ c white",
/* pixels */
"                            ",
"                            ",
"        XXXXXXX             ",
"        XooooooXX           ",
"     XXXooooooooXXXXO       ",
"    XoooooooooooooooX X     ",
"    XooooooooooooooooXoX    ",
"    XXooooooooooooooXooX    ",
"   XooooooooooooooooooooX   ",
"  XXoooooooooooooooooooooX  ",
"  XooooooooooooooooooooooX  ",
"  Xoooooooooo....ooooooooX  ",
"  Xoo....ooo.$$$$.oooooooX  ",
"  Xo.$$$$.o.$$$$$.oooooXoX  ",
"   X.$$$$.o.$$$$$$....oXoX  ",
"    .$$$$$..$$$$$$.#@XXXX   ",
"  XX.$$$$$..$$$$$$.@#XX     ",
"  XX.$$$$$.#.$$$$$.XXXXXXX  ",
"  X#..$$$.#@.$$$$.#XX@X@#X  ",
"  X@#@...#@#@....#XXX#@#XX  ",
"  XXXX++X@X@#@#@#X++X@#@X   ",
"    X+++X#@X@#@#X+++X#@#X   ",
"     X+++X#@#@#X++++XXXXX   ",
"     X++++X#@#XX++++++XX    ",
"      X++X+XXX+++++++XX     ",
"       X+X+X++X++++++X      ",
"       X+X+X+X++++++X       ",
"       X++XX+X++++++X       ",
"       X++XXX+++++++X       ",
"       X+++XX+++++++X       ",
"       X+++X++++++++X       ",
"       X+++X+++++++XX       ",
"        XXXXXXXXXXXX        ",
"         X++++++++X         ",
"        X XX+++++XXX        ",
"       XXXX+++++X+XX        ",
"       XXXXX+++X+XXX        ",
"       XXXXX+XXXXXX         ",
"        XXXXXXXXXXX         ",
"          XXX XXXX          "
};
