/* XPM */
static char *bsd[] = {
/* columns rows colors chars-per-pixel */
"59 64 254 2 ",
"   c None",
".  c #040604",
"X  c #070A08",
"o  c #0C0E0C",
"O  c #1E0C0A",
"+  c #0E1E16",
"@  c #101211",
"#  c #111613",
"$  c #161615",
"%  c #1B1513",
"&  c #151A18",
"*  c #1A1D1B",
"=  c #1E1D1D",
"-  c #280E0E",
";  c #36060A",
":  c #2A1212",
">  c #251D1C",
",  c #3A1515",
"<  c #3F1E1E",
"1  c #16261A",
"2  c #1D361F",
"3  c #18272F",
"4  c #212322",
"5  c #262522",
"6  c #2C2221",
"7  c #2B2827",
"8  c #262A29",
"9  c #2C2E2D",
"0  c #372020",
"q  c #382829",
"w  c #30322D",
"e  c #372E32",
"r  c #3A3937",
"t  c #3E3F3B",
"y  c #5A1A0E",
"u  c #471417",
"i  c #4B1F1D",
"p  c #541416",
"a  c #620A12",
"s  c #760E1A",
"d  c #62161A",
"f  c #6E161E",
"g  c #423E0E",
"h  c #6C221C",
"j  c #77251D",
"k  c #7E1626",
"l  c #4B2621",
"z  c #422C2A",
"x  c #492C2B",
"c  c #542121",
"v  c #532622",
"b  c #5B2A25",
"n  c #542D2D",
"m  c #4B2B3A",
"M  c #403234",
"N  c #483F3D",
"B  c #563431",
"V  c #642421",
"C  c #652C26",
"Z  c #6C2C27",
"A  c #742B24",
"S  c #6A2F37",
"D  c #663632",
"F  c #663E3B",
"G  c #753230",
"H  c #743938",
"J  c #224A1E",
"K  c #214222",
"L  c #264222",
"P  c #244620",
"I  c #265722",
"U  c #3E5A36",
"Y  c #2D6125",
"T  c #2D6827",
"R  c #307224",
"E  c #3D7D2E",
"W  c #3B6135",
"Q  c #5E4E1A",
"!  c #625606",
"~  c #665E12",
"^  c #76423E",
"/  c #726E2A",
"(  c #1A2E5E",
")  c #222E44",
"_  c #22324E",
"`  c #203E66",
"'  c #2E4658",
"]  c #2D4B70",
"[  c gray26",
"{  c #44484B",
"}  c #4C4D4C",
"|  c #54464C",
" . c #5A4252",
".. c #525553",
"X. c #7A4642",
"o. c #6E564A",
"O. c #4A7D41",
"+. c #527A42",
"@. c #5A6E52",
"#. c #5A4F66",
"$. c #5A5E62",
"%. c #675261",
"&. c #5E6363",
"*. c #566A66",
"=. c #686362",
"-. c #696C63",
";. c #766D6A",
":. c #767572",
">. c #8F1216",
",. c #B6120E",
"<. c #81261D",
"1. c #99211E",
"2. c #863E1E",
"3. c #A41F21",
"4. c #B61622",
"5. c #822221",
"6. c #8C2521",
"7. c #852C27",
"8. c #8E2C27",
"9. c #922C26",
"0. c #9A2B25",
"q. c #9C322C",
"w. c #862E3E",
"e. c #8D3531",
"r. c #8C3E3C",
"t. c #A22623",
"y. c #AA2926",
"u. c #AA2F28",
"i. c #B52326",
"p. c #B52D28",
"a. c #BF2A2A",
"s. c #A2312A",
"d. c #A63A2E",
"f. c #BB3629",
"g. c #CA1A12",
"h. c #C2261E",
"j. c #CA2923",
"k. c #DC2524",
"l. c #D82E25",
"z. c #C0312A",
"x. c #C73029",
"c. c #D13227",
"v. c #DE3327",
"b. c #D6362A",
"n. c #D83F2F",
"m. c #D03C32",
"M. c #E12D23",
"N. c #EB3527",
"B. c #E43528",
"V. c #E53B2A",
"C. c #EA3B2A",
"Z. c #F3352A",
"A. c #F03A2A",
"S. c #F73B29",
"D. c #A2561E",
"F. c #8A7F0D",
"G. c #824638",
"H. c #AE463E",
"J. c #B64E36",
"K. c #DE4636",
"L. c #924642",
"P. c #925A4E",
"I. c #B64646",
"U. c #A8564A",
"Y. c #AE5A52",
"T. c #936560",
"R. c #966E6A",
"E. c #83716C",
"W. c #847A7A",
"Q. c #947A76",
"!. c #A67676",
"~. c #B27672",
"^. c #D75249",
"/. c #C05650",
"(. c #CA6A56",
"). c #C26E66",
"_. c #3B842B",
"`. c #528A46",
"'. c #5A874D",
"]. c #569646",
"[. c #549C48",
"{. c #6A9A58",
"}. c #64A452",
"|. c #72A25E",
" X c #7EB171",
".X c #AA9E1A",
"XX c #AEA60E",
"oX c #B6AA1A",
"OX c #968A22",
"+X c #9E9A2A",
"@X c #BEAE22",
"#X c #C6BA0E",
"$X c #D1C10D",
"%X c #F2E01C",
"&X c #D6C624",
"*X c #FAE62E",
"=X c #9A9A4A",
"-X c #AA9E42",
";X c #B2AA46",
":X c #829A76",
">X c #BA8A7A",
",X c #A69E7A",
"<X c #AAA676",
"1X c #EE8276",
"2X c #C2BE62",
"3X c #82C270",
"4X c #92CE7E",
"5X c #D2C242",
"6X c #D2C246",
"7X c #E2DA52",
"8X c #F6EE4E",
"9X c #EADA66",
"0X c #FEF66A",
"qX c #7A7E80",
"wX c #8A7686",
"eX c #828682",
"rX c #959086",
"tX c #9A9E96",
"yX c #A89484",
"uX c #BAAE82",
"iX c #A6AA9A",
"pX c #B696A2",
"aX c #BEB6A6",
"sX c #D6928A",
"dX c #D2AE9E",
"fX c #CAB69F",
"gX c #D3BF9F",
"hX c #C0A7A3",
"jX c #C2AEA6",
"kX c #DEB5A5",
"lX c #DABEAA",
"zX c #9ED286",
"xX c #C8C09C",
"cX c #FAE686",
"vX c #DAD2A2",
"bX c #DEDEA2",
"nX c #DBD1BD",
"mX c #E7C7A9",
"MX c #E2C2BE",
"NX c #FEEEAF",
"BX c #EAE0BF",
"VX c #F2E2B2",
"CX c #F6E6B2",
"ZX c #CACAC6",
"AX c #DEDACA",
"SX c #EAD6C6",
"DX c #D2E2C6",
"FX c #D2EAC6",
"GX c #F6E2C8",
"HX c #F7EDCB",
"JX c #FDF4C1",
"KX c #FBF4CD",
"LX c #FEF8E1",
"PX c #FDFCF5",
/* pixels */
"                                                                                                                      ",
"                                                                                                                      ",
"                                                                    & E.                                              ",
"                                      :.                              > Y.                                            ",
"                                  &.A <.                                0 m.                                          ",
"                                  * i.                                  @ A b.                                        ",
"                                X l g.                                    > y.v.                                      ",
"                              X @ 7.y.              } 4 & = C 9.p.H.E.    * d.h.A.).                                  ",
"                              & & s.e.            = # = > n Z V 5.i.e.r 0 > 7.i.B.^.                                  ",
"                            $.X & 8.n.        [ # & = v C x % h 5.j 4.9.z.y.q t.M.v.                                  ",
"                            { @ & Z v.b.      % # + C 5.C * u.A.c.j.Z.x.G t.c.<.N.B.                                  ",
"                            w o * i t.N.C.B.c.9.x h <.<.Z i V.e.T.R.u.9.aXaX7.y.8.V.                                  ",
"                            { o + + A y.v.V.N.y.j <.j 6.Z f.1.E.VXHXT.,.wXJXnX9.h K.                                  ",
"                              o & & & V 9.1.t.j <.5.<.j 0.S.b jXcXNXHXJ.d.JXLXyX3.X.                                  ",
"                              > o & & & 6 Z C j j j j A j.B. .MXNXNXLXhXu.bXJXKXU.F                                   ",
"                                [ X & $ & & 4 z q h <.6.A.l.%.mXNXNXNXPX~.>XvXrXgXr.                                  ",
"                                  t o $ & $ & $ 4 h <.u.N.h.%.mXNXNXxX=.o.(.-.$.tXU.                                  ",
"                                    { X # & @ # 4 A 5.p.N.j.#.mXNXJXw :.-.H =.5 { G.                                  ",
"                                      7 & o @ & > h <.x.B.M. .mXNXVX7 7 w h B . . A T.                                ",
"                                        :.. $ & 4 A j z.N.Z.Z uXNXCX7 X . d ,.- < m.K.                                ",
"                                        &.. @ & = j h p.v.A.p.;.CXJX[ . . h 3.6.0.v.V.^.                              ",
"                                        ..X $ & $ V <.t.c.B.x.n iXJXBX# u h.M.Z.B.9.B.N.T.                            ",
"                                          . o + & l 5.h <.y.t.0.<.F  .k v f.A.C.V.8.C.A.P.      ,X                    ",
"                                          * o & & > j j y.v.A.N.Z.Z.k.8.4 v f.s.<.z.B.N.^   6X%X                      ",
"                                          = . @ & & b j j.Z.A.N.B.B.N.j.6.u.8.6.p.7.j.f.  -X=X                        ",
"                                            X . # & 0 C 9.<.<.z.v.N.N.v.Z.M.Z.c.c s.1.  <X%X      2X                  ",
"                                              o @ * 4 q v b - < 9.l.M.l.k.l.c.c , i     OX8X    &XXX                  ",
"                                                @ # @ q 8.s.f.1.< 0 j 0.u.6., $           $X  $XOX                    ",
"                                                  @ # 4 b b Z u.a.1.v v , :     !.1XsX    5X%X;X        cX8X          ",
"                                                  r o 4 z Z b > q D 6.h N       k A.A./.9X$X$X7X0X    %X#X            ",
"                                                  [ $ Z y.z.b.z.1.6.1.6.        0 M.C.D.$X    ! .X*X%XXX              ",
"                                                  @ > x.N.k.j.M.A.Z.M.b.        * C 6.2.                              ",
"                                                ..X 6 x.M.k.k.v.B.S.M.c.r.9 8 N 7 e.b.S.^.                            ",
"                                                X o > w.F B.M.B.u.5.e.s.G > 7 m q w.S.N.j.                            ",
"                                              eX$ @ 6 u.z F G i 1.V.N.S.m.> 4 B m 6 G 5.                              ",
"                                              } @ # 4 w.S 0 V x.S.V.C.C.c.7 7 8 H j.>.                                ",
"                                              r o & & 5 B D q.p.v.C.C.V.V.<.7 = 0 H                                   ",
"                                              w X & & 4 5 e n S 8.c.C.C.N.j.0.>                                       ",
"                                              $.o $ # * 5 9 x n S w.e.s.u.r.p                                         ",
"                                                8 @ & * * 4 w B n D G S n 0 $.                                        ",
"                                                9 X # @ X o * w m x m x q c K.                                        ",
"                                                o & 4 w oXF.4 o # * 5 0 i.A.C.Q.                                      ",
"                                              t @ @ F.#X@XQ M m 4 i 5.c.N.C.c.qX                                      ",
"                                              [ @ +X$X/ 9 m n C y.k.M.V.V.v.y                                         ",
"                                            =.@ # ~ g & q q z C y.3.M.S.A.1.                                          ",
"                                            & # @ o # @ * 3 7 z A 0.y.t.5.e                                           ",
"                                          @ 5 4 @ * 1 o X O $ 3 4 > % K 2 2                                           ",
"                                      ..w 8 4 o @ 8 I T Y 1 I W L 1 T [.E {                                           ",
"                                  t t 5 8 & @ r   2 O.E _.I ].{.O.I {.{.}. X                                          ",
"                          :...[ 5 8 * # & ..    w J zX'.Y Y  X:X'.2 Y @.].3X4X3XFX|. XDXZXLXPX                        ",
"                    r } 7 $ & & @ 5 @ t         * 2 W R R I K 1 I }.`.R W W +.O.+.E U eXnXSXPXPX                      ",
"          *.q x u u $ . X #                   -.1 I P Y R E T R Y T T t R.ZXAXnXxX-.| jXHXHXJXHXGXBX                  ",
"        e p f V M &.                          @ _ L K P J R R E _._.9 W.nXKXJXKXLXPXgX%.pXdXkXMXkXGXyX                ",
"      r V t.                                    # _ ] ] 2 2 K I T T e wXpXCXHXHXCXlXdXrX#.MXSXVXVXyX                  ",
"      4 i T.        B L.                          8 r ) ` ` ] ' ` ' ' } =.rXiXfXdXnXmX;.m =.W.o.B                     ",
"      o X , G.      >.x.I.                              [ 8 3 3 _ ( ` ` rXvXlXfXuXyXQ.                                ",
"        & @ . O x Z y.a.h.x./.                                  ;.[ 6 % % o 7 { ;.                                    ",
"                  O u p s >.>.i.x.                                                                                    ",
"                  8 4 1 4 + 1 o ; a                                                                                   ",
"                                                                                                                      ",
"                                                                                                                      ",
"                                                                                                                      ",
"                                                                                                                      ",
"                                                                                                                      "
};
