/* XPM */
static char *tux[] = {
/* columns rows colors chars-per-pixel */
"58 64 99 2 ",
"   c None",
".  c #020204",
"X  c #0A0604",
"o  c #0C0C0C",
"O  c #140D04",
"+  c #141413",
"@  c #1C1C1B",
"#  c #312305",
"$  c #382605",
"%  c gray14",
"&  c #2C2C2C",
"*  c #343434",
"=  c #3C3C3C",
"-  c #402C07",
";  c #493006",
":  c #5B3A05",
">  c #6C4505",
",  c #744904",
"<  c #784E04",
"1  c #7D5305",
"2  c #444444",
"3  c #4A4A4C",
"4  c #505050",
"5  c #646464",
"6  c #6C6C6B",
"7  c #747474",
"8  c #7C7C7C",
"9  c #835204",
"0  c #875805",
"q  c #8F5A04",
"w  c #885F07",
"e  c #8A6604",
"r  c #8E6A07",
"t  c #906007",
"y  c #976105",
"u  c #9B6605",
"i  c #9D6A07",
"p  c #91660A",
"a  c #AB7205",
"s  c #A4770A",
"d  c #AD780A",
"f  c #B37907",
"g  c #B67E0A",
"h  c #9D774C",
"j  c #AC8409",
"k  c #B98309",
"l  c #B68C08",
"z  c #B68A20",
"x  c #C08507",
"c  c #C98E07",
"v  c #C18B0A",
"b  c #C78A08",
"n  c #CE8E08",
"m  c #CF9407",
"M  c #D7960D",
"N  c #D19B09",
"B  c #D89C08",
"V  c #CF9418",
"C  c #D0A40D",
"Z  c #DAA309",
"A  c #DFA509",
"S  c #D7AC09",
"D  c #E5AC09",
"F  c #E1B40A",
"G  c #ECB40B",
"H  c #E2BC0C",
"J  c #EBBC0B",
"K  c #F2B60C",
"L  c #F5BD0C",
"P  c #EBB316",
"I  c #EBC40C",
"U  c #EDCC0E",
"Y  c #F3CD0C",
"T  c #F6D50D",
"R  c #F1D311",
"E  c #F6DA14",
"W  c #F6C62C",
"Q  c #F1D42A",
"!  c #AB8E47",
"~  c #F4D543",
"^  c #F6DA4A",
"/  c #838384",
"(  c #8D8D8C",
")  c gray58",
"_  c gray61",
"`  c #A4A4A4",
"'  c #ACACAC",
"]  c #BFB5A4",
"[  c #B5B4B3",
"{  c #BEBDBC",
"}  c gray77",
"|  c gray80",
" . c gray83",
".. c #DDDDDC",
"X. c #F4EEDE",
"o. c #E4E4E4",
"O. c #ECECEC",
"+. c #F4F4F4",
"@. c #FEFEFC",
/* pixels */
"                                                                                                                    ",
"                                                                                                                    ",
"                                                                                                                    ",
"                                                                                                                    ",
"                                                                                                                    ",
"                                                                                                                    ",
"                                                                                                                    ",
"                                            . . . . . . . .                                                         ",
"                                          . . . . . . . . X . .                                                     ",
"                                        . . . . . . . . o 5 3 . .                                                   ",
"                                        . . . . . . . . + 5 = @ . .                                                 ",
"                                      . . . . . . . . . o + . . . .                                                 ",
"                                      . . . . . . . . . . . . . . .                                                 ",
"                                      . . o + . . . . . . & . . . . .                                               ",
"                                      . . 7 @ 2 . . . 7 _ ) o . . . .                                               ",
"                                      . 5  ...X . . ( +.@.O.5 . . . .                                               ",
"                                      . O.. 8 O.. . +./ * ' @.. . . .                                               ",
"                                      . +.. 6 O.X % O.. o * @.. . . .                                               ",
"                                      . o.. . N F F A . . . @.. . . .                                               ",
"                                      . 2 X.v K H I Q I S @. .. . . .                                               ",
"                                      . # b D J I R ^ E E E W . . . .                                               ",
"                                      . d B G J U ~ T T T j A . . . .                                               ",
"                                      . ; D K I R E U w M Z n . % X . .                                             ",
"                                      . . p 1 r e k c n x { { . . 8 3 .                                             ",
"                                      . % [ i x m n g z ] }  .o . * * . .                                           ",
"                                      . + | { { h ! { [  .@.@.+.. . . . .                                           ",
"                                    @ . @.@.{ { { { | O.@.@.@.@.@ . . . . X                                         ",
"                                  . . = @.@.o.{ {  .@.@.@.@.@.@.@.. . . . .                                         ",
"                                . . . @.@.@.@.+.@.@.@.@.@.@.@.@.@.o . . . . .                                       ",
"                                . . _ @.@.@.@.@.@.@.@.@.@.@.@.@.+.& . . . . . .                                     ",
"                              . . . ` +.@.@.@.O.O.+.@.+.+.+.O.o. .O.. . . . . . .                                   ",
"                            . . . o _  .@.@.@.o.@.@.@.@.@.o. .} } } + . * . . . . .                                 ",
"                            . . . @ o.@.@.@.@.+.@.@.@.+.@.@.@.@...} +.. . 3 . . . .                                 ",
"                            . @ . +.@.@.@.@.+.@.@.@.@.@.@.@.@.@.@.@.} 4 . . = . . . .                               ",
"                          . X . 7 @.@.@.@.@.@.@.@.@.@.@.@.@.@.@.+.@.@.@.. 2 o o . . .                               ",
"                          . 3 . @.@.@.+.@.@.@.@.@.@.@.@.@.@.@.@.+.@.@.@.o @ . 4 . . .                               ",
"                          . . @ @.@.@.@.+.@.O.@.@.@.@.@.@.@.@.+.@.@.@.@.) . . . . . . .                             ",
"                        . 4 . @.@.@.@.@.@.@.o.@.@.+.@.@.@.@.@.@.@.@.@.+.+.. . . . . . .                             ",
"                        . X . @.+.@.@.@.+.@...@.@.@.@.@.@.@.+.+.@.@.@.@.@.. . . . . . .                             ",
"                      . . o . @.@.@.@.+.@.@...@.@.+.@.@.@.@.@.@.@.@.@.@.@.. . X . . . .                             ",
"                    . . . & . @.@.@.+.@.@.@...@.@.@.@.@.@.@.+.@.@.@.@.@.@.. . 4 . . . .                             ",
"                    . . . 8 + @.@.@.@.@.@.@...@.@.@.@.@.@.@.@.@.@.@.@.@.@.. . . . . . .                             ",
"                    . . X . * @.@.@.@.@.@.+...@.+.@.@.@.@.@.@.@.@.@.@.+.+.o o . @ * . .                             ",
"                      P L l X @.@.@.@.@.@.+...@.@.@.@.@.@.@.@.@.@.@.@.+.= . . . . . 4 .                             ",
"                    M P L L B . +.+.@.@.@.@...@.@.+.@.+.@.@.@.@.@.@.D T R . . . . X + J                             ",
"                  g A L L L L o . [ @.+.@.@.O.@.+.@.@.@.@.+.@.@.@.+.A L B . . . . . + I I                           ",
"          x A D D P L L L L L U . X * @.@.@.@.@.+.@.@.@.@.+.@.@.@.} B G m O . . . X S J D                           ",
"          V G L L L L L L L L L v . . o @.@.@.@.@.@.@.@.@.+.@.@.O.} M G Z x f d j M K L L                           ",
"          m K L L L L L L L L L Y . . . X @.@.+.@.@.@.@.+.+.@.@.o.} b G D B m m B G L L K N                         ",
"          c D L L L L L L L L L J F . . . @.@.@.@.@.@.@.@.@.@.@.@.} k G K G D D G K L L L L N                       ",
"          x D L L L L L L L L L L I s . . @.@.@.@.@.@.@.@.@.@.@.+.X k D J L L L L L L L L L L L                     ",
"          b A L L L L L L L L L L L I ` @.@.@.@.@.@.@.@.@.@.@.@.. . k G L L L L L L L L L L L L Z                   ",
"          b D L L L L L L L L L L L H C +.+.@.@.@.@.+.@.@.@.| . . . f G L L L L L L L L L L K A                     ",
"          B K L L L L L L L L L L L G A ; @.@.@.@.@.+.@.+.. . . . + g D L L L L L L L L L P V                       ",
"        f M G K L L L L L L L L L L K B t . . . . . . . . . . . . - k D L L L L L L K D b                           ",
"          f g b m B A D G K L K L L D b q . . . . . . . . . . . . ; f A P L L L D M n                               ",
"                u a f f k B A P K G m a , . . . . . . . . . . . . $ u c A G G A n a                                 ",
"                        < t i d g g y , ;                           9 a g x k f 1                                   ",
"                              : > , > ;                             - > 0 y 1 :                                     ",
"                                                                                                                    ",
"                                                                                                                    ",
"                                                                                                                    ",
"                                                                                                                    ",
"                                                                                                                    "
};
